<svg width="32" height="31" viewBox="0 0 32 31" fill="none" xmlns="http://www.w3.org/2000/svg">
<g filter="url(#filter0_d)">
<path d="M29.1106 5.72708C29.0646 5.27963 28.8445 4.87593 28.4874 4.58997L25.8168 2.4548C25.0807 1.86718 23.9908 1.97035 23.3848 2.68693L12.1578 15.9869L7.64627 12.2245C6.92276 11.6235 5.83059 11.7031 5.20962 12.4073L2.96076 14.9619C2.66007 15.3028 2.51376 15.7368 2.54947 16.1854C2.58519 16.6339 2.79717 17.0421 3.14855 17.3337L11.6774 24.4502C11.9942 24.7137 12.3871 24.855 12.7995 24.855C12.8502 24.855 12.902 24.8527 12.9539 24.8483C13.4205 24.8079 13.841 24.5914 14.1382 24.2404L28.7258 6.95839C29.0196 6.61187 29.1556 6.1734 29.1106 5.72708Z" fill="#2E3F7F"/>
<path d="M29.1106 5.72708C29.0646 5.27963 28.8445 4.87593 28.4874 4.58997L25.8168 2.4548C25.0807 1.86718 23.9908 1.97035 23.3848 2.68693L12.1578 15.9869L7.64627 12.2245C6.92276 11.6235 5.83059 11.7031 5.20962 12.4073L2.96076 14.9619C2.66007 15.3028 2.51376 15.7368 2.54947 16.1854C2.58519 16.6339 2.79717 17.0421 3.14855 17.3337L11.6774 24.4502C11.9942 24.7137 12.3871 24.855 12.7995 24.855C12.8502 24.855 12.902 24.8527 12.9539 24.8483C13.4205 24.8079 13.841 24.5914 14.1382 24.2404L28.7258 6.95839C29.0196 6.61187 29.1556 6.1734 29.1106 5.72708Z" fill="url(#paint0_linear)"/>
</g>
<defs>
<filter id="filter0_d" x="0" y="0" width="32" height="33" filterUnits="userSpaceOnUse" color-interpolation-filters="sRGB">
<feFlood flood-opacity="0" result="BackgroundImageFix"/>
<feColorMatrix in="SourceAlpha" type="matrix" values="0 0 0 0 0 0 0 0 0 0 0 0 0 0 0 0 0 0 127 0"/>
<feOffset dy="4"/>
<feGaussianBlur stdDeviation="1"/>
<feColorMatrix type="matrix" values="0 0 0 0 0.705882 0 0 0 0 0.0392157 0 0 0 0 0.105882 0 0 0 0.25 0"/>
<feBlend mode="normal" in2="BackgroundImageFix" result="effect1_dropShadow"/>
<feBlend mode="normal" in="SourceGraphic" in2="effect1_dropShadow" result="shape"/>
</filter>
<linearGradient id="paint0_linear" x1="15.8316" y1="2.07373" x2="15.8316" y2="24.855" gradientUnits="userSpaceOnUse">
<stop stop-color="#0085FF"/>
<stop offset="1" stop-color="#343982" stop-opacity="0"/>
</linearGradient>
</defs>
</svg>
