<svg width="25" height="15" viewBox="0 0 25 15" fill="none" xmlns="http://www.w3.org/2000/svg">
<path d="M0.286425 8.24663C0.286717 8.24694 0.286961 8.24731 0.287303 8.24763L5.39004 13.732C5.77231 14.1429 6.39062 14.1413 6.77114 13.7284C7.15161 13.3156 7.15014 12.6478 6.76787 12.2369L3.34189 8.55475L24.0234 8.55476C24.5628 8.55476 25 8.08257 25 7.50007C25 6.91757 24.5628 6.44538 24.0234 6.44538L3.34194 6.44538L6.76782 2.76326C7.1501 2.35235 7.15156 1.68458 6.77109 1.27172C6.39058 0.858759 5.77222 0.857335 5.38999 1.26814L0.287255 6.75251C0.286961 6.75282 0.286717 6.75319 0.286376 6.75351C-0.0960954 7.16578 -0.0948748 7.83572 0.286425 8.24663Z" fill="#F5F7F7"/>
</svg>
