<svg width="13" height="12" viewBox="0 0 13 12" fill="none" xmlns="http://www.w3.org/2000/svg">
<path d="M12.7431 1.83117C12.7214 1.60971 12.6179 1.40989 12.45 1.26836L11.1944 0.21156C10.8483 -0.0792819 10.3359 -0.0282181 10.051 0.326453L4.77243 6.90924L2.65126 5.04708C2.31109 4.74958 1.79759 4.78898 1.50563 5.13755L0.4483 6.40193C0.306925 6.57067 0.238133 6.78547 0.254925 7.00748C0.271716 7.2295 0.371383 7.43154 0.536591 7.57585L4.54655 11.0981C4.69551 11.2286 4.88022 11.2985 5.07413 11.2985C5.09797 11.2985 5.12234 11.2974 5.14672 11.2952C5.36609 11.2752 5.5638 11.1681 5.70355 10.9943L12.5621 2.4406C12.7003 2.2691 12.7642 2.05208 12.7431 1.83117Z" fill="white"/>
</svg>
