<svg width="50" height="30" viewBox="0 0 50 30" fill="none" xmlns="http://www.w3.org/2000/svg">
<path d="M48.0456 29.425C47.7791 29.4585 47.511 29.5 47.243 29.5016C44.6148 29.5064 41.9867 29.5 39.3602 29.5096C38.9947 29.5112 38.6852 29.3756 38.4139 29.157C37.865 28.7086 37.3001 28.2665 36.7943 27.7687C35.4794 26.465 34.198 25.1246 32.8927 23.8081C32.4858 23.398 32.0518 23.0199 31.6242 22.6321C31.4024 22.4231 31.1247 22.3784 30.8375 22.3832C30.4529 22.3927 30.1354 22.5667 29.9838 22.9225C29.8449 23.2448 29.73 23.5943 29.6933 23.939C29.6295 24.5629 29.6263 25.19 29.6136 25.8139C29.5992 26.5129 29.5785 27.2166 29.3822 27.8963C29.2944 28.1963 29.17 28.5011 29.0152 28.7724C28.7439 29.2383 28.3162 29.4921 27.7721 29.5032C25.4775 29.5559 23.1813 29.5894 20.8898 29.4394C20.4654 29.4075 20.0744 29.2734 19.6962 29.0867C17.558 28.0368 15.6798 26.6421 14.0474 24.9028C12.0607 22.7885 10.2576 20.521 8.45444 18.2535C6.02737 15.1961 3.92901 11.9249 2.04288 8.51325C1.35353 7.27019 0.688119 6.00958 0.193449 4.67078C-0.0506944 4.01015 -0.0506944 3.34793 0.132812 2.68252C0.185471 2.48465 0.279618 2.29157 0.388126 2.11764C0.54291 1.86233 0.783862 1.72031 1.09183 1.71393C1.20034 1.71233 1.31364 1.70914 1.42215 1.70914C3.80614 1.70914 6.18694 1.71871 8.56933 1.70116C9.04007 1.69797 9.4007 1.85594 9.71665 2.17509C10.3039 2.76231 10.7602 3.44687 11.1703 4.15856C11.6171 4.93407 12.0639 5.71437 12.4581 6.51861C13.3245 8.28825 14.3873 9.93822 15.5123 11.5467C16.0612 12.3302 16.6548 13.0834 17.2245 13.8509C17.4894 14.2083 17.8564 14.344 18.2792 14.3551C18.6909 14.3695 18.8585 14.202 18.8744 13.7903C18.8792 13.6913 18.8776 13.594 18.8776 13.4951C18.8776 10.8047 18.8776 8.11751 18.8744 5.42874C18.8744 5.2197 18.8744 5.00907 18.8537 4.80163C18.8058 4.32132 18.5521 4.04047 18.0766 3.94792C17.8612 3.90643 17.6409 3.88728 17.4223 3.85856C16.7521 3.7708 16.4745 3.48676 16.4043 2.81337C16.3005 1.7969 16.7872 1.00384 17.7399 0.647992C18.15 0.494803 18.5744 0.461294 19.0085 0.46289C21.1324 0.466081 23.2563 0.46289 25.3801 0.464485C25.811 0.464485 26.2418 0.442145 26.6695 0.480442C27.1179 0.523526 27.5711 0.582568 28.0067 0.710224C28.9354 0.978304 29.4731 1.61021 29.5785 2.58359C29.6056 2.81656 29.612 3.04954 29.612 3.28251C29.6152 4.91492 29.6152 6.54733 29.6152 8.17974C29.6152 9.91109 29.6136 11.6424 29.6183 13.3738C29.6183 13.5429 29.6327 13.7201 29.679 13.8812C29.8306 14.4062 30.4018 14.5801 30.8821 14.2498C32.2975 13.2748 33.2262 11.9169 33.9411 10.4058C34.6017 9.00951 35.1714 7.57018 35.7921 6.15479C36.2884 5.033 36.7974 3.9176 37.3161 2.80539C37.4421 2.52933 37.6288 2.27881 37.8027 2.02669C37.9607 1.8001 38.1682 1.70116 38.4602 1.70116C41.5447 1.71074 44.6228 1.70914 47.7057 1.70595C48.4605 1.70595 49.0589 2.01232 49.5296 2.58518C49.6956 2.78944 49.7642 3.02879 49.8073 3.29208C49.9908 4.50642 49.5743 5.56438 48.9935 6.58403C48.4429 7.54784 47.7887 8.43666 47.077 9.28079C45.6026 11.0265 44.1569 12.7929 42.8931 14.6998C42.5675 15.1897 42.2899 15.7115 41.9931 16.2173C41.7745 16.5875 41.8032 16.9434 42.0777 17.2737C42.6346 17.9439 43.1739 18.6332 43.7595 19.2731C45.151 20.7986 46.5776 22.2874 47.977 23.8049C48.4254 24.2932 48.8307 24.8166 49.2472 25.3336C49.3844 25.5044 49.4865 25.7038 49.6206 25.8778C50.6658 27.2277 49.3637 29.2511 48.0456 29.425Z" fill="white"/>
</svg>
